# xmcd CD database file
#
# Track frame offsets:
#	150
#	26948
#	46704
#	69718
#	86540
#	104341
#	132153
#	146324
#	174910
#	202440
#
# Disc length: 2993 seconds
#
# Revision: 0
# Processed by: cddbd v1.5.2PL0 Copyright (c) Steve Scherf et al.
# Submitted via: CDex 1.51
#
DISCID=8c0baf0a
DTITLE=Basin Street Cafe - Basin Street Cafe
DYEAR=1900
DGENRE=Jazz
TTITLE0=On the sunny side of the street
TTITLE1=Ice cream man
TTITLE2=From four 'till late
TTITLE3=Slim's mood
TTITLE4=Late morning blues
TTITLE5=St. James infirmary
TTITLE6=Hot tamales
TTITLE7=I'll take care of you
TTITLE8=The way I feel
TTITLE9=Calypso blues
EXTD=
EXTT0=
EXTT1=
EXTT2=
EXTT3=
EXTT4=
EXTT5=
EXTT6=
EXTT7=
EXTT8=
EXTT9=
PLAYORDER=
